<svg xmlns="http://www.w3.org/2000/svg" width="700" height="320"><rect width="100%" height="100%" fill="white"/><text x="350" y="30" text-anchor="middle" font-family="Arial" font-size="22" font-weight="700">Ionic Crystal — Brittleness</text><text x="350" y="80" text-anchor="middle" font-family="Arial" font-size="17">layer shift → like charges become adjacent → repulsion</text><g font-family="Arial" font-size="18" text-anchor="middle"><circle cx="170" cy="130" r="16" fill="#dbeafe" stroke="#111827" stroke-width="1"/><text x="170" y="136">+</text><circle cx="250" cy="130" r="16" fill="#dcfce7" stroke="#111827" stroke-width="1"/><text x="250" y="136">−</text><circle cx="330" cy="130" r="16" fill="#dbeafe" stroke="#111827" stroke-width="1"/><text x="330" y="136">+</text><circle cx="410" cy="130" r="16" fill="#dcfce7" stroke="#111827" stroke-width="1"/><text x="410" y="136">−</text><circle cx="490" cy="130" r="16" fill="#dbeafe" stroke="#111827" stroke-width="1"/><text x="490" y="136">+</text><circle cx="195" cy="168" r="16" fill="#dcfce7" stroke="#111827" stroke-width="1"/><text x="195" y="174">−</text><circle cx="275" cy="168" r="16" fill="#dbeafe" stroke="#111827" stroke-width="1"/><text x="275" y="174">+</text><circle cx="355" cy="168" r="16" fill="#dcfce7" stroke="#111827" stroke-width="1"/><text x="355" y="174">−</text><circle cx="435" cy="168" r="16" fill="#dbeafe" stroke="#111827" stroke-width="1"/><text x="435" y="174">+</text><circle cx="515" cy="168" r="16" fill="#dcfce7" stroke="#111827" stroke-width="1"/><text x="515" y="174">−</text><circle cx="170" cy="206" r="16" fill="#dbeafe" stroke="#111827" stroke-width="1"/><text x="170" y="212">+</text><circle cx="250" cy="206" r="16" fill="#dcfce7" stroke="#111827" stroke-width="1"/><text x="250" y="212">−</text><circle cx="330" cy="206" r="16" fill="#dbeafe" stroke="#111827" stroke-width="1"/><text x="330" y="212">+</text><circle cx="410" cy="206" r="16" fill="#dcfce7" stroke="#111827" stroke-width="1"/><text x="410" y="212">−</text><circle cx="490" cy="206" r="16" fill="#dbeafe" stroke="#111827" stroke-width="1"/><text x="490" y="212">+</text><circle cx="195" cy="244" r="16" fill="#dcfce7" stroke="#111827" stroke-width="1"/><text x="195" y="250">−</text><circle cx="275" cy="244" r="16" fill="#dbeafe" stroke="#111827" stroke-width="1"/><text x="275" y="250">+</text><circle cx="355" cy="244" r="16" fill="#dcfce7" stroke="#111827" stroke-width="1"/><text x="355" y="250">−</text><circle cx="435" cy="244" r="16" fill="#dbeafe" stroke="#111827" stroke-width="1"/><text x="435" y="250">+</text><circle cx="515" cy="244" r="16" fill="#dcfce7" stroke="#111827" stroke-width="1"/><text x="515" y="250">−</text></g><line x1="500" y1="105" x2="580" y2="105" stroke="#dc2626" stroke-width="3" marker-end="url(#a)"/><defs><marker id="a" markerWidth="8" markerHeight="8" refX="7" refY="4" orient="auto"><path d="M0,0 L8,4 L0,8 z" fill="#dc2626"/></marker></defs><text x="350" y="295" text-anchor="middle" font-family="Arial" font-size="17">like-charge repulsion promotes cleavage</text></svg>